<svg id="Layer_1" data-name="Layer 1" xmlns="http://www.w3.org/2000/svg" viewBox="0 0 131.45 42.84"><defs><style>.cls-1{fill:#333;}.cls-2{fill:#c3002f;}</style></defs><path class="cls-1" d="M1.84,14.61c0-7.57,5-12,10.8-12a9.63,9.63,0,0,1,6.86,3L16.77,8.89a5.84,5.84,0,0,0-4-1.82c-3.12,0-5.61,2.77-5.61,7.36s2.18,7.43,5.54,7.43a6.06,6.06,0,0,0,4.45-2.14L19.85,23a9.38,9.38,0,0,1-7.39,3.36C6.68,26.31,1.84,22.28,1.84,14.61Z"/><path class="cls-1" d="M22.1,21.06c0-3.65,2.9-5.65,9.77-6.35a2.4,2.4,0,0,0-2.73-2.52,9.16,9.16,0,0,0-4.59,1.58l-1.86-3.4a14.31,14.31,0,0,1,7.43-2.28c4.45,0,6.91,2.52,6.91,7.85v10H32.82l-.35-1.78h-.14a7.58,7.58,0,0,1-5,2.2A5,5,0,0,1,22.1,21.06Zm9.77-.21V17.8c-3.64.49-4.83,1.54-4.83,2.87,0,1.12.77,1.65,2,1.65A3.86,3.86,0,0,0,31.87,20.85Z"/><path class="cls-1" d="M41.37,8.51h4.21l.35,3.05h.14C47.33,9.21,49.22,8.09,51,8.09a5,5,0,0,1,2.07.35l-.84,4.45a6.41,6.41,0,0,0-1.9-.28c-1.29,0-2.91.84-3.82,3.19V25.89H41.37Z"/><path class="cls-2" d="M54.65,14.61c0-7.57,5-12,10.8-12a9.65,9.65,0,0,1,6.87,3L69.58,8.89a5.82,5.82,0,0,0-4-1.82c-3.12,0-5.6,2.77-5.6,7.36s2.17,7.43,5.53,7.43a6.06,6.06,0,0,0,4.45-2.14L72.67,23a9.4,9.4,0,0,1-7.4,3.36C59.49,26.31,54.65,22.28,54.65,14.61Z"/><path class="cls-2" d="M75.19,19.3V8.51h5.15V18.64c0,2.49.67,3.29,2.17,3.29,1.3,0,2.07-.56,3.09-1.93V8.51h5.15V25.89h-4.2l-.39-2.42h-.1a6.78,6.78,0,0,1-5.47,2.84C76.8,26.31,75.19,23.65,75.19,19.3Z"/><path class="cls-2" d="M99.86,24h-.14l-.42,1.85h-4V1.32h5.15v6L100.28,10a7,7,0,0,1,4.59-1.93c4.21,0,6.84,3.47,6.84,8.8,0,6-3.58,9.42-7.33,9.42A6.25,6.25,0,0,1,99.86,24Zm6.56-7c0-3.12-1-4.7-3-4.7a4,4,0,0,0-3,1.58V21a4,4,0,0,0,2.77,1.12C105,22.11,106.42,20.57,106.42,17Z"/><path class="cls-2" d="M114.34,17.2c0-5.64,4-9.11,8.2-9.11,4.94,0,7.39,3.61,7.39,8.34a11.07,11.07,0,0,1-.21,2.28H119.31a4.21,4.21,0,0,0,4.52,3.68,7,7,0,0,0,3.75-1.16l1.72,3.12a11.35,11.35,0,0,1-6.17,2C118.16,26.31,114.34,23,114.34,17.2Zm11.21-1.89c0-1.93-.84-3.3-2.91-3.3-1.61,0-3,1.09-3.36,3.3Z"/><path class="cls-1" d="M53,35h.62l.07.52h0a2.31,2.31,0,0,1,1.43-.63c1.16,0,1.78.9,1.78,2.29s-.92,2.42-2,2.42a2.07,2.07,0,0,1-1.24-.51v2.3H53Zm3.14,2.18c0-1-.33-1.65-1.18-1.65a1.91,1.91,0,0,0-1.21.61v2.36a1.81,1.81,0,0,0,1.1.47C55.58,38.93,56.13,38.25,56.13,37.14Z"/><path class="cls-1" d="M57.94,38.29c0-1,.84-1.47,2.75-1.68,0-.58-.18-1.13-.92-1.13a2.43,2.43,0,0,0-1.34.48l-.3-.53a3.35,3.35,0,0,1,1.77-.58c1.1,0,1.56.73,1.56,1.85v2.75h-.63l-.06-.53h0a2.42,2.42,0,0,1-1.49.64A1.22,1.22,0,0,1,57.94,38.29Zm2.75.06V37.11c-1.49.18-2,.55-2,1.12a.69.69,0,0,0,.79.72A1.79,1.79,0,0,0,60.69,38.35Z"/><path class="cls-1" d="M63.1,35h.63l.07.81h0a1.55,1.55,0,0,1,1.28-.92,1.17,1.17,0,0,1,.48.09l-.15.67a1.14,1.14,0,0,0-.43-.08c-.38,0-.83.28-1.14,1v2.88H63.1Z"/><path class="cls-1" d="M66.67,38.07V35.58H66V35l.71,0,.09-1.26h.64V35h1.21v.62H67.44v2.5c0,.55.17.87.69.87a1.81,1.81,0,0,0,.51-.12l.15.57a2.91,2.91,0,0,1-.83.16C67,39.56,66.67,39,66.67,38.07Z"/><path class="cls-1" d="M71.64,37.22a2.1,2.1,0,1,1,4.16,0,2.09,2.09,0,1,1-4.16,0Zm3.38,0c0-1-.52-1.74-1.3-1.74s-1.29.7-1.29,1.74.52,1.72,1.29,1.72S75,38.24,75,37.22Z"/><path class="cls-1" d="M77.34,35.58h-.61V35l.61,0v-.71c0-.92.42-1.49,1.32-1.49a1.88,1.88,0,0,1,.74.15l-.16.58a1.34,1.34,0,0,0-.51-.11c-.43,0-.63.29-.63.87V35h1v.62h-1v3.87h-.76Z"/><path class="cls-1" d="M84.56,35.28a2.1,2.1,0,0,1,.74.13,2,2,0,0,1,.63.37,2.09,2.09,0,0,1,.44.63,2.4,2.4,0,0,1,0,1.75,2.16,2.16,0,0,1-1.23,1.19,2.49,2.49,0,0,1-1,.18,2.61,2.61,0,0,1-1-.17,2.32,2.32,0,0,1-.73-.48,2.15,2.15,0,0,1-.46-.74,2.93,2.93,0,0,1-.15-1,2.65,2.65,0,0,1,.19-1,4.08,4.08,0,0,1,.59-1L84.24,33a.72.72,0,0,1,.25-.19.83.83,0,0,1,.36-.08h1l-2,2.43-.12.15-.12.14a1.9,1.9,0,0,1,.42-.15A1.88,1.88,0,0,1,84.56,35.28ZM83,37.36a1.59,1.59,0,0,0,.08.5,1.07,1.07,0,0,0,.22.39,1,1,0,0,0,.38.25,1.29,1.29,0,0,0,.51.09,1.35,1.35,0,0,0,.5-.09,1.2,1.2,0,0,0,.65-.65,1.28,1.28,0,0,0,.09-.48,1.38,1.38,0,0,0-.09-.52,1.14,1.14,0,0,0-.25-.39,1.08,1.08,0,0,0-.39-.24,1.29,1.29,0,0,0-.49-.08,1.31,1.31,0,0,0-.5.09,1.12,1.12,0,0,0-.38.26,1,1,0,0,0-.24.38A1.3,1.3,0,0,0,83,37.36Z"/><path class="cls-1" d="M92.12,32.77v.5a1.2,1.2,0,0,1-.05.36,1.56,1.56,0,0,1-.1.22l-2.52,5.22a1,1,0,0,1-.22.27.6.6,0,0,1-.39.11H88l2.59-5.1a2.42,2.42,0,0,1,.36-.54h-3.2a.25.25,0,0,1-.18-.08.22.22,0,0,1-.08-.19v-.77Z"/><path class="cls-1" d="M93,37.19A2.15,2.15,0,0,1,95,34.8a1.71,1.71,0,0,1,1.2.5l0-.73V32.93h1.06v6.52h-.87L96.23,39h0a1.84,1.84,0,0,1-1.28.6C93.77,39.56,93,38.69,93,37.19Zm3.08,1V36.06a1.33,1.33,0,0,0-.92-.38c-.59,0-1.06.55-1.06,1.5s.37,1.51,1,1.51A1.24,1.24,0,0,0,96.12,38.18Z"/><path class="cls-1" d="M98.47,37.19a2.21,2.21,0,0,1,2.09-2.39c1.23,0,1.87.89,1.87,2.16a3.18,3.18,0,0,1,0,.51H99.5a1.3,1.3,0,0,0,1.34,1.27,2,2,0,0,0,1.06-.33l.36.67a2.93,2.93,0,0,1-1.56.48A2.18,2.18,0,0,1,98.47,37.19Zm3-.44c0-.7-.31-1.12-.93-1.12a1.13,1.13,0,0,0-1.09,1.12Z"/><path class="cls-1" d="M103.28,40.28a1.15,1.15,0,0,1,.65-1v0a.86.86,0,0,1-.41-.76,1.08,1.08,0,0,1,.5-.84v0a1.51,1.51,0,0,1-.59-1.2,1.65,1.65,0,0,1,1.79-1.63,2.24,2.24,0,0,1,.67.11h1.62v.79h-.83a1.21,1.21,0,0,1,.26.77A1.54,1.54,0,0,1,105.22,38a1.79,1.79,0,0,1-.62-.12.52.52,0,0,0-.22.44c0,.25.18.41.74.41h.8c1.1,0,1.67.34,1.67,1.12s-1,1.6-2.42,1.6C104.08,41.46,103.28,41.07,103.28,40.28Zm3.28-.24c0-.36-.28-.46-.8-.46h-.62a2.71,2.71,0,0,1-.62-.06.76.76,0,0,0-.35.6c0,.41.44.65,1.16.65S106.56,40.42,106.56,40ZM106,36.43a.8.8,0,1,0-.79.92A.81.81,0,0,0,106,36.43Z"/><path class="cls-1" d="M108.62,34.91h.88l.07.81h0a1.54,1.54,0,0,1,1.28-.92,1.07,1.07,0,0,1,.52.1l-.18.92a1.41,1.41,0,0,0-.47-.07c-.37,0-.8.25-1.08.93v2.77h-1.06Z"/><path class="cls-1" d="M111.91,37.19A2.22,2.22,0,0,1,114,34.8c1.23,0,1.88.89,1.88,2.16a2.24,2.24,0,0,1,0,.51H113a1.3,1.3,0,0,0,1.34,1.27,1.92,1.92,0,0,0,1-.33l.36.67a2.9,2.9,0,0,1-1.55.48A2.18,2.18,0,0,1,111.91,37.19Zm3-.44c0-.7-.3-1.12-.92-1.12a1.13,1.13,0,0,0-1.09,1.12Z"/><path class="cls-1" d="M116.82,37.19a2.22,2.22,0,0,1,2.09-2.39c1.23,0,1.88.89,1.88,2.16a3.18,3.18,0,0,1,0,.51h-2.89a1.3,1.3,0,0,0,1.34,1.27,2,2,0,0,0,1.06-.33l.36.67a2.93,2.93,0,0,1-1.56.48A2.19,2.19,0,0,1,116.82,37.19Zm3.05-.44c0-.7-.31-1.12-.93-1.12a1.13,1.13,0,0,0-1.09,1.12Z"/><path class="cls-1" d="M121.58,38.94l.5-.69a2,2,0,0,0,1.26.51c.49,0,.72-.23.72-.55s-.49-.54-1-.73-1.28-.56-1.28-1.32.64-1.36,1.66-1.36a2.44,2.44,0,0,1,1.51.55l-.49.65a1.66,1.66,0,0,0-1-.39c-.45,0-.67.21-.67.5s.46.5,1,.67,1.3.53,1.3,1.38-.62,1.4-1.77,1.4A2.89,2.89,0,0,1,121.58,38.94Z"/></svg>