<svg id="Layer_1" data-name="Layer 1" xmlns="http://www.w3.org/2000/svg" viewBox="0 0 134.45 49.84"><defs><style>.cls-1{fill:#333;}.cls-2{fill:#c3002f;}</style></defs><path class="cls-1" d="M1.84,18.61c0-7.57,5-12,10.8-12a9.63,9.63,0,0,1,6.86,3l-2.73,3.29a5.84,5.84,0,0,0-4-1.82c-3.12,0-5.61,2.77-5.61,7.36s2.18,7.43,5.54,7.43a6.06,6.06,0,0,0,4.45-2.14L19.85,27a9.38,9.38,0,0,1-7.39,3.36C6.68,30.31,1.84,26.28,1.84,18.61Z"/><path class="cls-1" d="M22.1,25.06c0-3.65,2.9-5.65,9.77-6.35a2.4,2.4,0,0,0-2.73-2.52,9.16,9.16,0,0,0-4.59,1.58l-1.86-3.4a14.31,14.31,0,0,1,7.43-2.28c4.45,0,6.91,2.52,6.91,7.85v10H32.82l-.35-1.78h-.14a7.58,7.58,0,0,1-5,2.2A5,5,0,0,1,22.1,25.06Zm9.77-.21V21.8c-3.64.49-4.83,1.54-4.83,2.87,0,1.12.77,1.65,2,1.65A3.86,3.86,0,0,0,31.87,24.85Z"/><path class="cls-1" d="M41.37,12.51h4.21l.35,3.05h.14c1.26-2.35,3.15-3.47,4.94-3.47a5,5,0,0,1,2.07.35l-.84,4.45a6.41,6.41,0,0,0-1.9-.28c-1.29,0-2.91.84-3.82,3.19V29.89H41.37Z"/><path class="cls-2" d="M54.65,18.61c0-7.57,5-12,10.8-12a9.65,9.65,0,0,1,6.87,3l-2.74,3.29a5.82,5.82,0,0,0-4-1.82c-3.12,0-5.6,2.77-5.6,7.36s2.17,7.43,5.53,7.43a6.06,6.06,0,0,0,4.45-2.14L72.67,27a9.4,9.4,0,0,1-7.4,3.36C59.49,30.31,54.65,26.28,54.65,18.61Z"/><path class="cls-2" d="M75.19,23.3V12.51h5.15V22.64c0,2.49.67,3.29,2.17,3.29,1.3,0,2.07-.56,3.09-1.93V12.51h5.15V29.89h-4.2l-.39-2.42h-.1a6.78,6.78,0,0,1-5.47,2.84C76.8,30.31,75.19,27.65,75.19,23.3Z"/><path class="cls-2" d="M99.86,28h-.14l-.42,1.85h-4V5.32h5.15v6L100.28,14a7,7,0,0,1,4.59-1.93c4.21,0,6.84,3.47,6.84,8.8,0,6-3.58,9.42-7.33,9.42A6.25,6.25,0,0,1,99.86,28Zm6.56-7c0-3.12-1-4.7-3-4.7a4,4,0,0,0-3,1.58V25a4,4,0,0,0,2.77,1.12C105,26.11,106.42,24.57,106.42,21Z"/><path class="cls-2" d="M114.34,21.2c0-5.64,4-9.11,8.2-9.11,4.94,0,7.39,3.61,7.39,8.34a11.07,11.07,0,0,1-.21,2.28H119.31a4.21,4.21,0,0,0,4.52,3.68,7,7,0,0,0,3.75-1.16l1.72,3.12a11.35,11.35,0,0,1-6.17,2C118.16,30.31,114.34,27,114.34,21.2Zm11.21-1.89c0-1.93-.84-3.3-2.91-3.3-1.61,0-3,1.09-3.36,3.3Z"/><path class="cls-1" d="M53,39h.62l.07.52h0a2.31,2.31,0,0,1,1.43-.63c1.16,0,1.78.9,1.78,2.29s-.92,2.42-2,2.42a2.07,2.07,0,0,1-1.24-.51v2.3H53Zm3.14,2.18c0-1-.33-1.65-1.18-1.65a1.91,1.91,0,0,0-1.21.61v2.36a1.81,1.81,0,0,0,1.1.47C55.58,42.93,56.13,42.25,56.13,41.14Z"/><path class="cls-1" d="M57.94,42.29c0-1,.84-1.47,2.75-1.68,0-.58-.18-1.13-.92-1.13a2.43,2.43,0,0,0-1.34.48l-.3-.53a3.35,3.35,0,0,1,1.77-.58c1.1,0,1.56.73,1.56,1.85v2.75h-.63l-.06-.53h0a2.42,2.42,0,0,1-1.49.64A1.22,1.22,0,0,1,57.94,42.29Zm2.75.06V41.11c-1.49.18-2,.55-2,1.12a.69.69,0,0,0,.79.72A1.79,1.79,0,0,0,60.69,42.35Z"/><path class="cls-1" d="M63.1,39h.63l.07.81h0a1.55,1.55,0,0,1,1.28-.92,1.17,1.17,0,0,1,.48.09l-.15.67a1.14,1.14,0,0,0-.43-.08c-.38,0-.83.28-1.14,1v2.88H63.1Z"/><path class="cls-1" d="M66.67,42.07V39.58H66V39l.71,0,.09-1.26h.64V39h1.21v.62H67.44v2.5c0,.55.17.87.69.87a1.81,1.81,0,0,0,.51-.12l.15.57a2.91,2.91,0,0,1-.83.16C67,43.56,66.67,43,66.67,42.07Z"/><path class="cls-1" d="M71.64,41.22a2.1,2.1,0,1,1,4.16,0,2.09,2.09,0,1,1-4.16,0Zm3.38,0c0-1-.52-1.74-1.3-1.74s-1.29.7-1.29,1.74.52,1.72,1.29,1.72S75,42.24,75,41.22Z"/><path class="cls-1" d="M77.34,39.58h-.61V39l.61,0v-.71c0-.92.42-1.49,1.32-1.49a1.88,1.88,0,0,1,.74.15l-.16.58a1.34,1.34,0,0,0-.51-.11c-.43,0-.63.29-.63.87V39h1v.62h-1v3.87h-.76Z"/><path class="cls-1" d="M84,39.16l-.21.24a2.4,2.4,0,0,1,.38-.12,2.22,2.22,0,0,1,1.17.09,1.67,1.67,0,0,1,.63.37,1.72,1.72,0,0,1,.45.63,2.16,2.16,0,0,1,.17.88,2.34,2.34,0,0,1-.17.88,2.29,2.29,0,0,1-.49.73,2.48,2.48,0,0,1-.76.49,2.79,2.79,0,0,1-2,0A2,2,0,0,1,82,42.12a2.74,2.74,0,0,1-.16-1,2.66,2.66,0,0,1,.19-1,4.51,4.51,0,0,1,.58-1l1.56-2.09a.75.75,0,0,1,.27-.21.91.91,0,0,1,.41-.09H86Zm.16,3.34a1.23,1.23,0,0,0,.47-.09,1,1,0,0,0,.36-.24,1.31,1.31,0,0,0,.24-.37,1.14,1.14,0,0,0,.09-.46,1.53,1.53,0,0,0-.08-.49,1.13,1.13,0,0,0-.24-.36.93.93,0,0,0-.37-.23,1.16,1.16,0,0,0-.47-.08,1.23,1.23,0,0,0-.44.08,1,1,0,0,0-.35.24,1.1,1.1,0,0,0-.23.37,1.4,1.4,0,0,0-.08.47,1.51,1.51,0,0,0,.07.48.82.82,0,0,0,.21.36,1,1,0,0,0,.34.24A1.42,1.42,0,0,0,84.13,42.5Z"/><path class="cls-1" d="M92.12,36.75v.55a1.3,1.3,0,0,1-.05.38c0,.1-.07.19-.1.25L89.53,43a1.05,1.05,0,0,1-.25.3.71.71,0,0,1-.43.12h-.92l2.5-5a1.93,1.93,0,0,1,.19-.32,1.39,1.39,0,0,1,.21-.27H87.74a.31.31,0,0,1-.29-.29v-.85Z"/><path class="cls-1" d="M93,41.16a2.14,2.14,0,0,1,1.91-2.4,1.5,1.5,0,0,1,1.13.48L96,38.53V37h1.36v6.48H96.23L96.14,43h0a1.83,1.83,0,0,1-1.22.56C93.74,43.56,93,42.66,93,41.16ZM96,42V40.16a1.09,1.09,0,0,0-.76-.29c-.43,0-.82.4-.82,1.27s.31,1.32.83,1.32A.87.87,0,0,0,96,42Z"/><path class="cls-1" d="M98.5,41.16a2.25,2.25,0,0,1,2.17-2.4,1.94,1.94,0,0,1,2,2.2,2.77,2.77,0,0,1-.06.6H99.81a1.13,1.13,0,0,0,1.2,1,1.82,1.82,0,0,0,1-.31l.45.83a3,3,0,0,1-1.63.51A2.23,2.23,0,0,1,98.5,41.16Zm3-.5c0-.51-.22-.87-.77-.87a.91.91,0,0,0-.88.87Z"/><path class="cls-1" d="M103.41,44.24a1.07,1.07,0,0,1,.65-.92v0a.88.88,0,0,1-.42-.78,1.11,1.11,0,0,1,.52-.86v0a1.44,1.44,0,0,1-.62-1.19,1.7,1.7,0,0,1,1.89-1.65,2,2,0,0,1,.71.11h1.68v1h-.73a1.26,1.26,0,0,1,.15.6c0,1-.8,1.54-1.81,1.54a2,2,0,0,1-.55-.09.38.38,0,0,0-.17.34c0,.23.19.34.7.34h.73c1.13,0,1.75.35,1.75,1.17s-1,1.65-2.56,1.65C104.26,45.41,103.41,45.05,103.41,44.24ZM106.6,44c0-.29-.25-.36-.7-.36h-.48a2.44,2.44,0,0,1-.64-.06.6.6,0,0,0-.25.46c0,.34.4.52,1,.52S106.6,44.3,106.6,44Zm-.54-3.58c0-.48-.27-.74-.63-.74s-.62.25-.62.74.26.77.62.77S106.06,40.92,106.06,40.41Z"/><path class="cls-1" d="M108.86,38.87H110l.09.8h0a1.52,1.52,0,0,1,1.3-.91,1.27,1.27,0,0,1,.55.09L111.73,40a2,2,0,0,0-.5-.07,1.14,1.14,0,0,0-1,.84v2.66h-1.36Z"/><path class="cls-1" d="M112.41,41.16a2.25,2.25,0,0,1,2.16-2.4c1.31,0,2,1,2,2.2a2.9,2.9,0,0,1,0,.6h-2.75a1.12,1.12,0,0,0,1.19,1,1.78,1.78,0,0,0,1-.31l.46.83a3,3,0,0,1-1.63.51A2.23,2.23,0,0,1,112.41,41.16Zm3-.5c0-.51-.22-.87-.77-.87a.92.92,0,0,0-.89.87Z"/><path class="cls-1" d="M117.43,41.16a2.25,2.25,0,0,1,2.16-2.4,1.94,1.94,0,0,1,2,2.2,2.77,2.77,0,0,1-.06.6h-2.74a1.11,1.11,0,0,0,1.19,1,1.8,1.8,0,0,0,1-.31l.45.83a3,3,0,0,1-1.62.51A2.23,2.23,0,0,1,117.43,41.16Zm3-.5c0-.51-.23-.87-.77-.87a.91.91,0,0,0-.89.87Z"/><path class="cls-1" d="M122.31,42.93l.61-.85a2,2,0,0,0,1.18.48c.41,0,.58-.15.58-.39s-.46-.45-.93-.63-1.21-.59-1.21-1.35.69-1.43,1.75-1.43a2.61,2.61,0,0,1,1.62.58l-.61.81a1.7,1.7,0,0,0-1-.39c-.35,0-.52.13-.52.37s.43.4.9.58,1.24.53,1.24,1.38-.66,1.47-1.89,1.47A2.92,2.92,0,0,1,122.31,42.93Z"/></svg>